<?xml version="1.0" standalone="no"?>
<!DOCTYPE svg PUBLIC "-//W3C//DTD SVG 20010904//EN"
 "http://www.w3.org/TR/2001/REC-SVG-20010904/DTD/svg10.dtd">
<svg version="1.0" xmlns="http://www.w3.org/2000/svg"
 width="1536.000000pt" height="1536.000000pt" viewBox="0 0 1536.000000 1536.000000"
 preserveAspectRatio="xMidYMid meet">
<metadata>
Created by potrace 1.14, written by Peter Selinger 2001-2017
</metadata>
<g transform="translate(0.000000,1536.000000) scale(0.100000,-0.100000)"
fill="#000000" stroke="none">
<path d="M13064 11196 c5 -13 2 -17 -9 -12 -8 3 -15 0 -15 -7 0 -9 -2 -9 -8 1
-7 9 -14 7 -33 -9 -13 -12 -23 -26 -21 -31 1 -5 -2 -7 -7 -3 -6 3 -8 13 -5 23
4 9 -3 5 -13 -11 -11 -15 -22 -24 -25 -21 -4 3 -11 -4 -17 -15 -7 -12 -17 -18
-26 -15 -8 4 -15 1 -15 -6 0 -6 -5 -8 -12 -4 -7 5 -9 2 -6 -8 5 -11 0 -14 -20
-10 -20 4 -24 2 -19 -11 3 -9 3 -16 -1 -15 -4 1 -22 -6 -41 -16 -23 -12 -31
-14 -26 -4 3 7 -1 4 -10 -7 -9 -11 -20 -20 -26 -20 -5 0 -14 -6 -18 -14 -5 -7
-14 -10 -20 -7 -6 4 -11 3 -11 -3 0 -6 -7 -8 -15 -5 -18 7 -20 -12 -2 -20 6
-4 2 -4 -11 -2 -14 3 -30 -3 -42 -17 -11 -11 -20 -17 -20 -12 0 5 -7 0 -16
-11 -8 -10 -13 -13 -9 -6 5 10 1 10 -19 0 -14 -6 -26 -15 -26 -20 0 -5 -4 -7
-9 -4 -5 3 -12 -1 -15 -10 -4 -9 -13 -14 -21 -10 -8 3 -15 0 -15 -6 0 -7 -4
-7 -14 1 -11 9 -14 8 -12 -5 1 -12 -7 -17 -26 -18 -15 -1 -35 -10 -44 -21 -8
-11 -13 -14 -9 -8 4 9 1 11 -9 7 -9 -3 -13 -11 -9 -17 4 -6 0 -8 -10 -4 -9 3
-23 -1 -32 -9 -8 -9 -15 -12 -15 -8 0 3 -6 2 -12 -4 -26 -20 -91 -53 -96 -48
-3 3 -11 -2 -19 -12 -8 -9 -12 -11 -8 -5 4 9 1 11 -9 7 -9 -3 -13 -11 -9 -18
4 -6 -2 -4 -12 4 -10 8 -16 10 -12 4 8 -14 -20 -27 -35 -17 -7 4 -8 1 -3 -7 6
-10 3 -12 -13 -8 -12 4 -28 -1 -41 -13 -14 -13 -21 -15 -25 -6 -3 8 -10 6 -20
-7 -9 -11 -16 -17 -16 -13 0 4 -16 -2 -36 -13 -19 -11 -33 -16 -29 -10 3 5 2
10 -4 10 -5 0 -11 -6 -13 -12 -3 -7 -11 -13 -19 -14 -40 -2 -80 -18 -75 -29 3
-8 -2 -11 -14 -8 -10 3 -21 0 -25 -7 -5 -8 -11 -8 -21 1 -9 7 -14 8 -13 3 4
-20 -2 -24 -21 -14 -16 9 -18 8 -14 -5 4 -9 3 -15 -2 -14 -23 4 -45 -2 -39
-11 3 -5 2 -10 -4 -10 -5 0 -12 6 -14 13 -3 7 -6 4 -6 -7 -1 -15 -4 -16 -15
-7 -11 10 -17 8 -25 -6 -8 -14 -10 -15 -11 -3 0 12 -2 12 -9 2 -4 -8 -12 -14
-17 -15 -5 -1 -8 -6 -6 -10 1 -5 -3 -5 -10 -1 -22 14 -40 13 -34 -1 3 -9 0
-12 -10 -8 -8 3 -14 -1 -14 -8 0 -12 -2 -12 -9 -1 -6 11 -10 10 -15 -3 -5 -14
-9 -15 -20 -6 -11 9 -16 9 -22 0 -5 -8 -3 -9 6 -4 8 5 11 4 7 -2 -4 -6 -20 -9
-37 -8 -17 1 -33 -1 -36 -6 -3 -5 -10 -7 -15 -4 -5 4 -9 1 -9 -4 0 -6 -14 -11
-31 -11 -16 0 -28 -4 -24 -9 3 -6 -4 -8 -15 -6 -11 2 -20 0 -20 -5 0 -4 -9 -6
-20 -3 -12 3 -20 0 -20 -8 0 -8 -6 -5 -15 7 -15 18 -15 18 -8 0 4 -13 3 -17
-5 -12 -7 4 -12 2 -12 -5 0 -8 -5 -7 -17 2 -9 8 -14 9 -10 3 4 -7 -2 -14 -13
-17 -11 -3 -20 -1 -20 4 0 5 -5 9 -11 9 -6 0 -9 -6 -6 -14 4 -10 0 -14 -14
-11 -10 2 -19 -2 -19 -8 0 -7 -4 -6 -10 3 -8 12 -10 12 -16 -3 -5 -15 -9 -15
-22 -5 -10 8 -13 8 -9 2 4 -7 0 -15 -9 -18 -10 -4 -13 -2 -8 7 5 8 2 7 -9 -2
-14 -11 -17 -11 -17 0 0 12 -2 12 -9 0 -5 -8 -18 -12 -30 -8 -12 3 -24 0 -28
-5 -3 -6 -1 -8 5 -4 6 3 13 2 16 -2 3 -5 -7 -8 -22 -7 -46 2 -97 -10 -94 -24
2 -9 -3 -9 -18 -1 -15 8 -20 8 -20 -1 0 -9 -3 -9 -14 0 -11 9 -15 8 -20 -5 -5
-13 -9 -14 -21 -4 -12 10 -15 10 -15 -1 0 -11 -2 -11 -10 1 -9 13 -10 13 -10
0 0 -13 -1 -13 -10 0 -8 13 -10 12 -10 -2 0 -10 -5 -18 -11 -18 -5 0 -8 4 -4
9 3 5 1 12 -5 16 -5 3 -10 -1 -10 -11 0 -13 -3 -14 -14 -5 -9 7 -17 8 -20 2
-3 -5 -18 -8 -32 -6 -15 1 -28 -3 -31 -11 -3 -8 -9 -14 -15 -14 -5 0 -6 6 -3
13 4 6 0 4 -8 -6 -11 -14 -16 -15 -20 -5 -4 10 -6 10 -6 1 -1 -7 -8 -13 -17
-13 -9 0 -13 5 -9 13 4 6 0 4 -8 -6 -13 -16 -15 -16 -21 -1 -6 15 -8 15 -24 2
-9 -9 -27 -14 -40 -12 -13 2 -21 0 -18 -5 3 -4 -7 -6 -22 -4 -31 5 -31 5 -95
0 -27 -2 -53 -10 -59 -18 -8 -11 -9 -10 -4 4 3 11 0 17 -10 17 -11 0 -14 -5
-9 -17 5 -15 4 -16 -6 -5 -16 15 -33 16 -24 2 8 -13 -18 -8 -27 5 -5 6 -8 5
-8 -4 0 -7 -6 -11 -15 -7 -8 3 -15 1 -15 -5 0 -6 -7 -6 -20 1 -15 8 -20 8 -20
-2 0 -10 -2 -10 -9 0 -6 11 -11 10 -25 -3 -10 -10 -16 -12 -16 -4 0 8 -5 8
-17 -2 -9 -8 -14 -9 -10 -3 3 6 0 11 -8 11 -8 0 -12 -3 -10 -7 2 -4 -12 -7
-31 -8 -19 -1 -39 -4 -44 -7 -5 -3 -12 0 -16 6 -4 8 -9 7 -15 -2 -6 -9 -9 -10
-9 -2 0 8 -9 9 -28 3 -16 -4 -36 -4 -45 2 -10 5 -17 5 -17 1 0 -9 -173 -8
-196 1 -8 3 -14 1 -14 -5 0 -6 -7 -6 -20 1 -15 8 -20 8 -20 -2 0 -9 -3 -9 -10
2 -7 11 -10 11 -10 2 0 -7 -5 -10 -12 -6 -6 4 -26 7 -45 6 -20 -1 -33 3 -33
11 0 8 -3 7 -9 -2 -5 -8 -17 -16 -25 -17 -9 -1 -14 2 -10 7 3 5 10 6 16 3 6
-4 8 -3 5 3 -7 11 -36 11 -55 -1 -11 -6 -15 -2 -14 14 0 3 -33 4 -74 4 -40 -1
-71 2 -69 6 8 13 -27 22 -39 10 -8 -8 -6 -9 7 -5 9 4 17 3 17 -3 0 -12 -18
-10 -47 6 -19 10 -23 10 -23 0 0 -8 -3 -9 -8 -3 -4 6 -25 10 -47 10 -22 0 -48
3 -57 7 -10 5 -20 3 -24 -3 -4 -8 -9 -7 -14 2 -6 9 -12 10 -22 2 -9 -7 -21 -7
-41 1 -15 7 -26 14 -25 17 2 2 -5 -5 -15 -16 -17 -20 -17 -20 -10 0 6 17 5 18
-9 7 -12 -9 -18 -10 -23 -2 -4 6 -13 9 -20 6 -7 -2 -16 -2 -19 2 -10 9 -46 10
-46 0 0 -5 -7 -2 -16 6 -8 9 -21 17 -27 17 -49 5 -74 3 -86 -6 -11 -8 -13 -7
-7 4 7 11 1 13 -26 9 -22 -2 -34 0 -32 7 3 6 -13 10 -37 11 -25 1 -35 -2 -27
-7 9 -6 9 -9 1 -9 -6 0 -15 5 -18 11 -4 6 -13 8 -19 6 -7 -3 -19 -1 -27 3 -8
6 -16 4 -21 -3 -6 -9 -8 -8 -8 2 0 11 -3 11 -15 1 -12 -10 -16 -9 -21 5 -5 13
-18 16 -61 14 -36 -2 -57 2 -63 10 -6 11 -9 11 -13 0 -5 -12 -6 -12 -6 0 -1
11 -4 11 -18 0 -11 -10 -14 -10 -9 -1 5 8 -1 12 -21 13 -46 2 -96 9 -101 14
-3 3 -11 0 -19 -6 -10 -9 -13 -8 -13 2 0 11 -2 11 -10 -1 -5 -8 -10 -10 -10
-4 0 7 -11 14 -25 16 -13 3 -22 2 -20 -2 2 -4 -9 -7 -25 -7 -17 0 -30 4 -30 9
0 5 4 7 9 3 5 -3 12 -1 15 4 7 10 -9 9 -38 -4 -12 -5 -21 -3 -27 6 -6 10 -9
10 -9 2 0 -15 -21 -13 -32 2 -5 6 -8 5 -8 -3 0 -10 -5 -10 -20 -2 -14 8 -20 8
-20 0 0 -6 -5 -8 -10 -5 -6 4 -8 10 -6 14 7 10 -32 7 -41 -4 -5 -4 -2 -5 6 0
10 5 12 4 7 -4 -4 -6 -12 -9 -17 -5 -5 3 -6 10 -3 16 5 7 1 9 -9 5 -10 -3 -17
-3 -17 1 0 4 -35 7 -78 7 -88 -1 -105 2 -95 19 3 6 -3 3 -14 -7 -19 -16 -53
-15 -53 3 0 13 -34 6 -48 -10 -11 -13 -11 -13 -6 1 4 12 -1 16 -18 15 -13 -1
-29 2 -35 7 -9 6 -13 5 -13 -2 0 -9 -6 -8 -22 1 -28 15 -67 18 -74 6 -3 -4
-11 -8 -17 -8 -7 0 -6 4 3 10 15 10 -11 13 -98 12 -30 0 -32 1 -20 16 12 15
11 16 -4 3 -10 -7 -18 -10 -18 -6 0 4 -7 2 -15 -5 -12 -10 -15 -9 -16 6 0 11
-3 14 -6 6 -2 -6 -9 -9 -15 -6 -20 12 -53 10 -64 -5 -9 -11 -12 -12 -19 -1 -6
9 -4 11 6 5 8 -5 11 -5 7 0 -11 12 -78 14 -71 2 4 -6 1 -7 -7 -2 -7 4 -43 9
-80 10 -37 1 -72 5 -78 9 -6 3 -12 0 -15 -6 -3 -10 -7 -10 -17 -1 -10 9 -18 9
-34 1 -15 -8 -21 -8 -24 0 -3 9 -9 9 -23 2 -14 -8 -19 -7 -19 1 0 8 -5 8 -16
-2 -9 -7 -18 -9 -22 -3 -10 13 -35 17 -27 4 3 -5 1 -10 -4 -10 -6 0 -11 6 -11
13 0 9 -3 8 -9 -2 -7 -11 -9 -11 -14 0 -4 12 -7 11 -16 -1 -10 -13 -12 -13
-20 -1 -8 12 -12 12 -25 2 -12 -10 -16 -10 -16 -2 0 7 -5 9 -12 5 -17 -11 -58
-11 -58 -1 0 4 -5 5 -11 2 -17 -11 -69 -12 -69 -2 0 5 -7 4 -15 -3 -12 -10
-15 -10 -15 1 0 12 -2 12 -9 0 -7 -11 -9 -11 -14 0 -5 12 -8 11 -17 -1 -8 -11
-13 -12 -16 -3 -4 9 -13 9 -31 2 -20 -7 -28 -6 -35 3 -6 10 -8 10 -8 -2 0 -13
-1 -13 -10 0 -6 10 -10 11 -10 2 0 -14 -21 -12 -32 3 -5 6 -12 4 -19 -5 -8
-11 -12 -12 -15 -3 -4 9 -13 9 -31 2 -20 -7 -28 -6 -35 3 -6 10 -8 10 -8 -2 0
-11 -2 -12 -8 -3 -5 7 -13 9 -21 3 -8 -4 -24 -4 -36 0 -14 5 -27 4 -34 -3 -8
-8 -11 -7 -11 3 0 13 -2 13 -10 0 -7 -11 -10 -11 -10 -2 0 10 -5 10 -21 1 -12
-6 -19 -7 -16 -2 3 5 -3 9 -13 9 -10 0 -16 -4 -14 -8 3 -4 1 -8 -5 -8 -5 0
-13 5 -16 10 -4 6 -12 7 -18 3 -6 -4 -41 -7 -77 -8 -36 0 -70 -4 -76 -8 -6 -3
-14 -3 -18 0 -12 13 -48 14 -40 1 5 -7 3 -8 -7 -2 -21 13 -109 11 -98 -2 5 -7
3 -11 -6 -11 -8 0 -15 5 -15 11 0 6 -5 4 -10 -4 -9 -13 -10 -13 -10 0 0 12 -2
13 -9 1 -6 -9 -20 -12 -40 -9 -25 4 -31 2 -26 -10 4 -11 2 -12 -8 -4 -10 9
-17 8 -27 -1 -10 -10 -11 -9 -5 3 6 10 2 9 -12 -3 -12 -10 -24 -14 -27 -9 -3
5 -23 6 -46 2 -22 -4 -40 -5 -40 -1 0 3 -5 -1 -10 -9 -9 -13 -10 -13 -10 0 0
13 -1 13 -10 0 -5 -8 -10 -10 -10 -4 0 6 -7 11 -15 11 -11 0 -12 -4 -4 -14 16
-18 4 -16 -15 3 -9 9 -16 11 -16 4 0 -6 -4 -8 -10 -5 -5 3 -10 2 -10 -3 0 -4
-17 -7 -37 -5 -20 1 -42 -2 -48 -7 -6 -5 -17 -5 -24 0 -18 11 -43 1 -34 -14 4
-6 -1 -5 -10 3 -15 12 -17 11 -17 -3 0 -10 -5 -14 -10 -11 -6 4 -8 12 -4 18 3
7 -1 4 -9 -6 -11 -13 -17 -15 -22 -7 -6 9 -10 9 -15 -1 -7 -10 -12 -10 -23 -1
-17 15 -28 6 -20 -16 5 -14 2 -13 -16 3 -14 12 -21 14 -19 6 2 -7 -3 -16 -11
-19 -8 -2 -11 0 -8 5 7 11 -30 10 -56 -2 -10 -4 -21 -5 -24 -2 -3 4 -14 2 -25
-4 -31 -17 -80 -21 -71 -6 4 7 0 7 -10 -2 -9 -7 -23 -11 -32 -7 -8 3 -14 2
-14 -2 3 -19 -2 -25 -11 -12 -7 12 -12 12 -22 2 -6 -6 -24 -12 -38 -12 -14 0
-32 -6 -39 -12 -11 -10 -13 -10 -7 0 4 6 2 12 -3 12 -6 0 -11 -4 -11 -10 0 -5
-5 -10 -11 -10 -5 0 -8 4 -5 8 3 5 -1 9 -9 9 -8 0 -12 -4 -9 -9 3 -4 -3 -8
-13 -8 -11 0 -25 -6 -32 -12 -11 -10 -12 -10 -7 -1 5 9 2 11 -8 7 -9 -3 -13
-11 -9 -17 4 -6 1 -7 -8 -1 -18 11 -39 14 -38 6 3 -19 -3 -22 -21 -12 -17 9
-19 8 -13 -7 6 -16 5 -17 -12 -3 -17 14 -18 13 -12 -4 6 -16 5 -17 -8 -6 -8 7
-15 8 -15 3 0 -5 -13 -9 -30 -8 -16 1 -35 -2 -42 -6 -7 -4 -19 -2 -27 4 -10 8
-13 8 -8 1 8 -14 -20 -27 -35 -17 -7 3 -8 1 -4 -5 10 -16 -7 -15 -23 1 -10 10
-11 9 -6 -5 6 -14 2 -18 -17 -18 -13 0 -29 -5 -35 -11 -7 -7 -27 -13 -45 -14
-50 -4 -50 -4 -42 -17 6 -10 4 -10 -8 0 -13 10 -18 10 -24 1 -5 -8 -3 -9 6 -4
8 5 11 4 7 -3 -4 -5 -17 -8 -29 -4 -13 3 -19 1 -15 -5 4 -6 0 -14 -9 -17 -24
-9 -31 -7 -14 5 12 9 11 9 -5 3 -11 -4 -28 -7 -37 -8 -10 0 -18 -7 -18 -16 0
-13 -1 -13 -10 0 -9 13 -12 12 -25 -4 -10 -13 -15 -15 -15 -6 0 9 -5 8 -16 -6
-8 -10 -13 -12 -9 -4 4 8 -1 6 -9 -4 -9 -11 -16 -16 -16 -12 0 5 -8 2 -17 -5
-14 -12 -16 -12 -9 1 6 13 6 13 -6 0 -7 -9 -23 -15 -35 -14 -13 1 -31 -5 -40
-13 -16 -13 -15 -13 7 -3 22 10 23 10 7 -3 -9 -8 -28 -13 -42 -12 -14 2 -28
-2 -32 -7 -3 -6 -1 -8 5 -4 6 3 13 2 16 -2 3 -5 -10 -8 -29 -7 -22 2 -35 -2
-35 -9 0 -6 -10 -13 -22 -13 -28 -2 -69 -23 -84 -42 -6 -8 -18 -12 -27 -8 -8
3 -21 -1 -27 -8 -7 -8 -17 -12 -24 -8 -7 4 -6 1 1 -8 10 -13 10 -16 0 -16 -24
-1 -42 -8 -55 -23 -12 -13 -13 -13 -7 0 4 8 0 6 -9 -4 -8 -10 -13 -23 -9 -29
3 -6 1 -7 -6 -3 -6 4 -8 12 -4 19 3 6 -7 2 -23 -10 -16 -11 -41 -23 -56 -27
-16 -3 -28 -11 -28 -17 0 -6 -4 -7 -10 -4 -5 3 -10 0 -10 -7 0 -8 -16 -20 -35
-27 -19 -6 -34 -18 -32 -24 1 -7 -5 -11 -14 -11 -12 1 -15 -4 -11 -20 5 -19 4
-20 -14 -6 -10 8 -16 11 -12 6 4 -5 0 -15 -8 -23 -8 -8 -11 -19 -8 -25 4 -6
-2 -6 -15 1 -17 10 -20 9 -15 -4 4 -10 0 -15 -11 -15 -9 0 -14 -4 -11 -9 7
-11 -25 -27 -60 -30 -10 -1 -14 -7 -11 -15 4 -10 1 -13 -7 -10 -8 3 -17 0 -21
-5 -3 -6 -11 -9 -16 -6 -5 3 -7 0 -4 -7 3 -8 -7 -19 -25 -26 -17 -8 -28 -18
-24 -23 3 -5 -2 -9 -11 -9 -9 0 -13 -4 -10 -10 3 -5 1 -10 -5 -10 -7 0 -10 -7
-6 -17 6 -17 5 -17 -8 0 -13 16 -14 16 -20 -8 -4 -14 -14 -25 -22 -25 -14 0
-15 -2 -3 -17 10 -11 10 -14 2 -9 -7 4 -13 3 -13 -3 0 -6 -7 -8 -15 -5 -10 4
-13 0 -10 -15 2 -12 -1 -20 -8 -18 -7 1 -11 -3 -10 -10 2 -6 -6 -15 -17 -18
-10 -3 -17 -12 -14 -19 3 -7 -5 -18 -18 -24 -13 -6 -17 -11 -10 -11 6 -1 12
-6 12 -12 0 -5 -4 -7 -10 -4 -5 3 -10 1 -10 -5 0 -6 -4 -8 -10 -5 -6 4 -7 -1
-3 -11 4 -12 3 -15 -5 -10 -8 5 -10 2 -6 -8 4 -9 0 -18 -9 -22 -9 -3 -14 -14
-12 -25 3 -16 0 -19 -18 -15 -12 3 -17 3 -10 0 9 -4 6 -15 -8 -40 -11 -21 -14
-33 -7 -29 7 4 1 -3 -14 -14 -19 -15 -24 -27 -20 -43 4 -16 2 -19 -9 -13 -12
8 -12 6 0 -8 12 -15 12 -17 -3 -11 -12 5 -15 2 -10 -10 4 -9 1 -16 -6 -16 -7
0 -10 -7 -6 -16 4 -11 2 -15 -8 -11 -10 4 -13 -1 -11 -19 1 -16 -3 -24 -14
-24 -14 0 -14 -2 -1 -10 11 -7 11 -10 2 -10 -7 0 -12 -8 -10 -17 2 -13 -3 -17
-17 -16 -19 1 -19 1 -2 -12 16 -12 16 -13 -3 -18 -11 -3 -20 -11 -20 -19 0
-10 3 -9 10 2 5 8 10 11 10 7 0 -5 -10 -23 -22 -40 -12 -17 -17 -27 -11 -24 8
5 11 -2 9 -20 -2 -16 -10 -29 -20 -31 -9 -2 -14 -8 -10 -13 3 -5 11 -6 17 -2
7 3 4 -2 -5 -13 -14 -16 -15 -23 -5 -34 10 -10 8 -12 -7 -6 -17 6 -17 5 -5
-11 8 -9 9 -14 2 -10 -16 10 -22 -14 -11 -37 8 -14 7 -16 -2 -11 -9 6 -11 -4
-9 -38 2 -25 0 -45 -5 -44 -17 4 -17 -21 1 -26 16 -4 16 -5 1 -6 -12 -1 -15
-8 -12 -27 3 -14 1 -23 -4 -20 -5 3 -9 -1 -9 -9 0 -8 5 -15 11 -15 6 0 4 -5
-4 -10 -13 -9 -13 -10 0 -10 13 0 13 -1 0 -10 -13 -9 -13 -10 0 -10 11 -1 10
-4 -4 -15 -11 -8 -14 -15 -7 -15 7 0 9 -5 5 -12 -12 -19 -12 -48 -1 -48 5 0 5
-6 -2 -13 -8 -10 -7 -17 2 -27 8 -8 8 -11 1 -7 -7 4 -15 0 -18 -9 -3 -8 -2
-13 2 -10 5 3 7 -20 5 -51 -2 -32 2 -62 8 -70 10 -11 8 -12 -7 -7 -17 5 -18 5
-2 -8 15 -13 15 -15 0 -26 -12 -8 -13 -10 -2 -7 11 4 15 -3 15 -24 0 -16 -3
-27 -6 -25 -14 8 -3 -32 11 -44 8 -8 9 -11 2 -7 -10 5 -11 0 -6 -22 4 -15 7
-37 6 -48 0 -11 4 -23 11 -27 9 -6 9 -8 -1 -8 -7 0 -10 -5 -7 -10 4 -6 9 -8
13 -6 4 2 7 -24 7 -59 0 -35 3 -61 8 -58 4 2 7 0 7 -6 0 -5 -3 -11 -7 -14 -5
-2 -3 -2 4 -1 6 2 14 -4 17 -12 3 -8 1 -14 -5 -14 -6 0 -3 -8 8 -17 10 -10 12
-13 4 -8 -12 8 -12 7 -3 -11 6 -12 8 -24 5 -28 -3 -3 -2 -6 4 -6 6 0 11 -11
12 -25 3 -48 4 -54 13 -49 4 3 8 -4 8 -14 0 -28 25 -73 36 -64 4 4 2 -2 -6
-12 -10 -13 -10 -17 -2 -12 11 7 13 3 16 -36 1 -7 10 -21 21 -31 11 -10 13
-15 5 -11 -12 6 -12 4 1 -12 9 -10 24 -36 34 -56 10 -23 22 -35 29 -31 6 4 4
-2 -4 -12 -9 -11 -10 -16 -2 -11 11 7 17 -5 13 -27 -1 -5 3 -6 8 -3 11 7 23
-22 14 -36 -3 -7 -1 -8 5 -4 7 4 12 1 12 -9 0 -9 5 -13 10 -10 9 6 14 -8 11
-27 0 -5 4 -8 10 -8 5 0 7 -5 3 -12 -5 -8 -2 -9 9 -5 9 3 16 3 16 -1 -3 -20 2
-25 12 -12 8 12 9 10 4 -7 -4 -14 -2 -23 5 -23 6 0 8 -5 5 -10 -4 -6 -1 -9 7
-8 8 2 12 -5 10 -21 -2 -19 0 -22 12 -12 12 10 16 8 21 -8 3 -12 11 -21 16
-21 5 0 9 -5 9 -11 0 -5 -5 -7 -12 -3 -7 4 -8 3 -4 -4 4 -6 13 -9 21 -5 11 3
15 -2 15 -18 0 -19 2 -21 10 -9 8 12 10 9 10 -13 0 -16 3 -26 8 -24 9 6 33
-19 25 -27 -4 -3 1 -6 10 -6 9 0 19 -5 23 -12 5 -7 2 -9 -7 -4 -8 4 -5 0 5 -8
11 -9 24 -16 29 -16 5 0 4 -6 -2 -14 -10 -12 -8 -13 10 -9 15 4 20 3 15 -5 -4
-7 -2 -12 4 -12 6 0 8 -6 4 -12 -4 -7 3 -4 16 7 l23 20 -12 -22 c-10 -19 -9
-21 9 -18 19 4 26 -10 21 -39 -1 -5 4 -4 12 2 8 7 18 8 22 4 5 -4 5 0 1 8 -4
8 2 4 15 -10 12 -14 25 -24 30 -23 4 1 22 -11 39 -27 18 -17 36 -30 42 -30 5
0 16 -7 25 -15 8 -8 19 -12 25 -9 7 4 8 2 4 -4 -8 -13 28 -35 39 -24 3 4 5 1
3 -6 -1 -7 15 -23 37 -35 22 -12 56 -33 75 -47 19 -14 82 -49 140 -78 58 -30
137 -71 176 -92 100 -54 106 -57 134 -68 14 -5 52 -22 85 -38 33 -15 63 -27
68 -26 4 1 7 -2 7 -8 0 -6 3 -9 8 -8 9 3 133 -49 197 -83 28 -15 61 -30 75
-34 27 -7 185 -70 290 -115 36 -16 88 -36 115 -44 28 -9 59 -20 70 -25 11 -5
63 -24 115 -42 52 -18 97 -36 98 -41 2 -4 14 -8 27 -8 13 0 36 -6 52 -14 15
-8 62 -25 103 -37 41 -13 82 -26 90 -30 8 -4 56 -19 105 -34 113 -35 287 -90
385 -122 134 -44 314 -95 355 -100 22 -2 44 -8 50 -13 15 -12 279 -79 475
-120 52 -12 106 -25 120 -29 30 -11 152 -38 197 -45 17 -2 37 -7 42 -11 6 -3
30 -8 53 -11 24 -2 70 -11 103 -19 33 -8 78 -16 100 -19 22 -3 92 -15 155 -26
63 -11 120 -18 127 -15 7 2 15 0 18 -5 3 -4 24 -8 48 -8 23 0 82 -7 131 -16
49 -9 91 -14 94 -11 3 3 11 0 17 -5 7 -6 47 -11 89 -13 42 -1 76 -5 76 -9 0
-5 20 -8 45 -8 40 0 182 -12 290 -25 22 -3 174 -10 338 -17 311 -12 515 -6
922 27 247 20 324 31 337 50 5 6 8 5 8 -4 0 -10 3 -11 14 -2 7 6 22 8 32 5 17
-6 17 -5 -1 9 -20 16 -19 16 4 10 16 -4 22 -2 18 5 -4 6 0 9 10 7 10 -1 25 2
33 8 13 9 13 9 2 -3 -7 -8 -18 -15 -24 -15 -6 0 -13 -6 -16 -13 -3 -11 0 -12
17 -3 11 7 21 8 21 4 1 -4 7 3 14 16 11 20 14 21 19 7 4 -11 12 -14 19 -9 20
12 37 12 45 1 4 -7 1 -8 -8 -3 -11 6 -12 5 -2 -5 11 -12 16 -11 29 6 8 10 12
12 8 4 -7 -13 -6 -13 10 0 10 8 31 13 48 12 16 -1 27 1 24 6 -3 5 1 9 9 9 8 0
15 -5 15 -11 0 -6 7 0 16 12 12 18 19 21 30 11 11 -9 15 -8 20 5 5 12 10 13
26 5 13 -7 18 -7 14 -1 -3 6 -2 13 4 17 5 3 10 1 10 -6 0 -8 3 -9 13 0 8 6 17
8 21 4 3 -4 13 2 21 13 15 19 15 19 9 -1 -5 -19 -5 -19 9 -3 16 20 32 25 21 6
-4 -6 3 -4 16 5 17 12 28 13 42 6 14 -7 18 -7 16 3 -2 9 8 13 30 13 17 0 32 3
32 8 0 4 5 5 10 2 6 -3 10 0 10 7 0 9 3 9 10 -2 8 -13 10 -13 10 2 0 11 5 15
15 12 8 -4 23 0 32 7 14 12 16 12 8 -1 -5 -9 0 -7 14 4 22 20 22 20 16 0 -6
-17 -6 -17 5 -1 6 9 18 17 26 17 8 0 13 3 11 8 -5 7 7 9 77 13 23 2 33 6 29
15 -3 9 2 12 16 9 12 -2 21 0 21 6 0 5 5 9 11 9 5 0 7 -5 3 -12 -8 -13 4 -7
50 26 16 11 27 15 23 9 -4 -7 2 -10 18 -9 22 1 23 2 9 13 -15 11 -14 12 7 11
41 -2 51 1 43 15 -4 6 3 3 16 -8 l23 -20 -11 20 c-9 17 -7 21 8 21 10 0 16 -5
12 -11 -3 -5 1 -4 10 2 8 7 18 10 22 6 4 -4 5 -1 1 7 -4 11 4 15 31 16 20 1
40 7 44 14 4 7 15 10 25 7 9 -4 14 -3 10 3 -3 6 -1 10 5 10 6 0 8 5 4 13 -5 8
-2 8 9 -2 10 -8 17 -9 17 -3 0 6 9 9 20 7 11 -2 18 0 15 6 -4 5 1 9 10 9 9 0
14 4 11 9 -3 4 5 7 19 6 17 -2 22 1 18 11 -3 8 0 14 6 14 6 0 11 -6 11 -12 0
-8 7 -5 15 6 8 11 15 16 15 12 0 -5 8 -2 17 5 11 9 14 10 9 2 -5 -9 -2 -11 8
-7 9 3 16 10 16 16 0 5 5 6 10 3 6 -3 10 -1 10 5 0 6 8 10 18 8 10 -2 16 2 14
11 -3 12 0 12 12 2 13 -11 17 -10 22 3 4 9 15 21 25 27 15 8 17 7 12 -8 -5
-12 -1 -11 15 5 12 12 29 22 38 22 8 0 12 5 9 10 -3 6 3 10 14 10 11 0 23 5
26 10 4 6 16 10 28 8 13 -2 21 2 20 10 -2 6 4 12 12 12 9 0 18 7 21 15 4 8 10
13 14 10 11 -7 40 5 40 17 0 5 -5 6 -12 2 -7 -4 -8 -3 -4 5 6 9 11 9 21 1 10
-8 16 -7 24 7 6 10 11 14 11 9 0 -5 7 -3 15 4 8 6 19 9 25 5 6 -4 9 -3 8 2 -2
4 0 8 3 8 4 0 16 9 28 19 12 11 21 15 21 11 0 -5 7 0 16 11 8 10 13 12 9 4 -4
-10 -2 -9 8 3 8 9 20 17 26 17 7 0 9 5 6 11 -4 6 0 9 11 7 11 -2 18 2 17 9 -2
7 4 10 12 7 8 -4 15 -1 15 6 0 6 5 8 12 4 7 -5 9 -2 5 9 -4 11 -1 15 13 12 10
-2 21 3 24 11 3 9 11 12 18 8 8 -5 9 -2 5 10 -4 9 -3 15 2 12 5 -3 19 3 32 15
12 11 28 18 35 15 6 -2 11 3 10 12 0 9 6 17 14 17 8 0 19 6 23 13 5 7 12 10
17 7 4 -3 11 2 14 11 3 9 13 14 21 11 10 -4 12 -1 8 10 -5 12 -2 15 9 10 22
-8 30 3 15 21 -7 9 -7 13 -1 9 6 -3 22 5 34 18 13 14 32 25 42 25 12 0 16 4
12 12 -5 8 -2 9 11 4 16 -6 16 -4 4 11 -9 10 -9 14 -2 10 7 -5 21 1 33 13 11
11 25 18 29 15 5 -3 8 2 7 12 -3 17 53 73 73 73 6 0 14 7 17 15 4 8 10 12 15
9 5 -3 9 3 9 12 0 10 3 15 6 11 3 -3 21 9 39 28 19 18 36 31 39 28 3 -3 4 4 1
15 -3 16 1 20 16 17 11 -2 17 0 14 6 -4 5 -1 9 5 9 6 0 15 11 22 25 6 13 15
22 19 19 5 -3 9 2 9 10 0 9 5 16 11 16 5 0 7 5 4 10 -3 6 1 10 9 10 8 0 18 5
22 12 4 7 3 8 -4 4 -7 -4 -12 -5 -12 -2 0 3 19 19 42 36 22 16 36 30 29 30 -7
0 -9 5 -6 10 4 6 11 7 17 4 7 -5 9 -1 5 9 -4 11 -1 17 7 17 8 0 21 11 30 25 9
14 22 23 28 19 7 -5 8 -3 4 5 -10 15 23 53 38 44 6 -4 4 2 -4 12 -8 10 -10 16
-3 12 7 -4 14 1 18 14 4 13 12 18 21 15 8 -3 13 -2 9 3 -8 14 6 42 18 34 6 -4
8 0 4 10 -3 10 -2 17 3 17 6 0 10 7 10 15 0 14 13 20 35 15 6 -1 5 4 -2 11 -9
9 -7 16 10 31 12 11 16 16 8 12 -10 -5 -12 -3 -7 5 5 7 14 10 22 7 9 -3 11 0
7 11 -5 12 -3 14 8 8 8 -4 11 -5 7 0 -4 4 -2 17 4 29 7 11 12 24 13 28 0 3 4
10 9 15 5 5 6 3 2 -4 -4 -7 -2 -13 3 -13 10 0 16 29 12 53 0 4 6 7 15 7 10 0
14 5 10 16 -3 8 -2 12 4 9 6 -3 10 1 10 10 0 9 4 14 9 10 6 -3 8 3 6 15 -2 11
1 19 8 17 7 -1 11 6 9 16 -2 9 4 20 13 23 8 3 15 15 15 26 0 16 3 18 14 9 11
-9 12 -6 8 16 -4 21 -2 25 10 20 12 -4 14 0 10 15 -3 14 -1 19 6 14 8 -5 10
-2 6 9 -4 9 1 22 12 31 11 9 13 13 7 9 -9 -4 -11 -1 -7 9 3 9 10 14 14 11 10
-6 22 24 14 36 -3 5 1 9 8 9 8 0 15 12 16 27 2 29 22 58 22 33 0 -7 3 -10 6
-7 4 4 1 14 -7 24 -12 14 -12 16 0 8 11 -6 13 -4 8 9 -4 9 -3 14 2 11 12 -7
25 31 16 45 -4 6 -1 9 6 8 7 -2 13 6 14 17 0 13 6 19 18 19 9 -1 17 2 17 7 0
5 -5 9 -12 9 -6 0 -1 11 11 24 12 13 21 27 20 32 -5 26 2 45 14 38 6 -4 9 -4
5 1 -4 4 -3 14 3 21 6 8 9 20 6 28 -4 10 -1 13 7 10 9 -3 12 4 11 25 -1 17 2
28 7 25 4 -3 8 2 8 11 0 8 5 25 12 38 25 49 27 57 21 73 -4 11 -3 15 5 10 6
-3 13 -2 17 4 3 5 0 10 -7 10 -8 0 -7 4 4 11 10 5 15 16 11 24 -3 9 0 22 7 30
7 8 10 24 7 34 -3 14 -1 18 9 14 9 -3 14 2 14 17 0 12 5 30 10 41 8 14 7 19
-2 19 -8 0 -5 5 5 11 15 9 16 13 5 27 -8 10 -9 13 -1 9 6 -4 14 -3 18 3 3 5 0
10 -7 10 -9 0 -9 3 2 10 8 5 11 10 5 10 -5 0 -1 7 9 15 12 9 15 15 7 15 -11 0
-11 3 -1 15 6 8 10 29 7 49 -4 27 -2 33 10 29 9 -4 14 0 13 8 -5 36 1 70 11
63 7 -4 10 4 8 22 -2 16 0 35 4 42 5 6 5 16 2 22 -4 6 1 7 11 3 14 -5 15 -3 4
17 -9 17 -9 21 0 15 9 -5 10 -1 5 14 -4 14 -2 21 7 21 10 0 10 2 -1 9 -11 7
-12 13 -3 23 8 10 8 18 1 25 -8 8 -7 13 2 18 8 5 10 4 5 -3 -4 -7 -5 -12 -2
-12 3 0 10 10 17 21 8 15 8 19 0 15 -6 -4 -11 -1 -11 8 0 8 6 17 13 19 9 4 8
6 -2 6 -11 1 -11 4 -1 16 7 8 10 24 7 35 -3 11 1 27 10 35 11 12 11 15 1 15
-10 0 -9 3 2 10 13 9 13 10 0 10 -9 0 -11 3 -5 8 6 4 10 18 10 32 0 14 7 34
15 45 14 18 13 18 -1 7 -13 -9 -16 -9 -16 3 0 8 7 15 14 15 12 0 11 3 -1 16
-18 18 -21 34 -5 34 5 0 7 -5 3 -12 -4 -6 -3 -8 4 -5 11 8 11 25 -1 44 -4 6
-2 15 5 19 8 5 6 10 -8 15 -18 7 -18 8 0 8 16 1 17 3 5 18 -10 11 -10 14 -1 9
9 -5 12 5 12 41 0 27 5 54 10 59 8 8 8 19 0 38 -5 15 -6 25 -1 22 5 -3 11 12
13 35 2 22 0 43 -4 45 -5 3 -4 13 1 22 4 9 6 23 3 31 -3 10 0 11 9 5 11 -6 11
-4 0 10 -13 15 -13 19 0 27 8 5 9 9 3 9 -6 0 -11 11 -11 25 0 14 5 25 11 25 6
0 5 4 -3 9 -13 8 -13 12 0 27 8 10 9 15 3 11 -7 -4 -11 8 -11 38 0 27 4 42 10
38 6 -4 7 -1 1 8 -14 24 -16 51 -2 43 10 -6 10 -5 1 7 -12 15 -13 86 0 106 4
6 2 15 -4 19 -8 5 -9 3 -4 -6 6 -9 4 -11 -4 -6 -9 6 -8 13 6 29 10 11 12 17 6
13 -7 -4 -13 -3 -13 1 0 5 6 15 13 22 10 11 9 12 -1 6 -16 -8 -13 26 3 37 6 5
5 8 -2 8 -7 0 -13 7 -13 16 0 9 5 12 12 8 7 -5 8 -3 2 7 -13 20 -15 81 -2 73
5 -4 2 6 -8 22 -12 17 -14 25 -6 20 11 -7 12 -4 3 13 -9 16 -9 21 1 21 9 0 9
3 0 12 -7 7 -8 17 -1 29 8 15 6 17 -8 12 -16 -6 -16 -5 -4 10 9 11 10 17 2 17
-6 0 -11 5 -11 11 0 5 4 8 8 5 5 -3 9 1 9 9 0 8 -5 11 -10 8 -6 -4 -8 0 -4 10
3 10 3 17 -2 17 -10 0 -9 33 1 40 4 3 1 18 -7 33 -9 17 -10 29 -4 33 13 7 8
76 -6 86 -6 5 -5 8 3 8 19 0 14 20 -5 21 -15 0 -15 2 2 9 11 5 14 9 6 9 -11 1
-11 4 0 18 8 9 9 14 3 10 -7 -4 -15 0 -18 9 -9 23 -7 31 3 16 7 -11 9 -11 14
2 4 9 1 16 -4 16 -7 0 -9 11 -7 25 5 22 3 24 -11 13 -10 -8 -9 -5 3 10 11 12
15 22 10 22 -6 0 -10 9 -11 20 -1 13 2 18 10 13 9 -5 8 -2 0 9 -7 8 -10 18 -6
21 3 4 1 7 -7 7 -10 0 -10 3 0 15 9 10 9 15 1 15 -6 0 -11 12 -11 26 0 14 -4
23 -8 20 -5 -3 -9 1 -9 9 0 8 5 11 11 8 6 -3 5 0 -1 7 -10 11 -10 17 0 29 10
12 9 13 -2 6 -11 -6 -13 -4 -7 10 5 14 4 16 -7 7 -11 -9 -13 -8 -12 6 0 9 4
23 9 30 4 6 3 12 -2 12 -11 0 -9 30 3 49 6 10 4 12 -5 6 -10 -6 -12 -3 -8 13
4 14 1 22 -11 25 -14 4 -14 5 1 6 11 1 15 6 12 16 -4 8 -10 13 -14 10 -5 -3
-7 6 -6 19 2 16 -3 27 -13 31 -14 6 -14 8 3 21 11 8 14 14 7 14 -7 0 -9 5 -5
13 6 9 5 9 -8 0 -13 -11 -15 -9 -13 15 0 15 -5 33 -12 41 -8 8 -11 22 -7 34 6
18 4 20 -7 10 -11 -9 -18 -5 -33 15 l-20 27 24 -20 24 -20 -20 26 c-11 15 -25
24 -33 21 -9 -3 -12 -1 -7 6 4 7 1 12 -8 12 -9 0 -16 5 -16 10 0 6 -7 10 -15
10 -8 0 -15 5 -15 12 0 6 -3 8 -7 5 -3 -4 -13 -1 -21 6 -13 10 -14 9 -8 -2 6
-9 5 -12 -5 -9 -8 3 -13 12 -11 19 1 9 -3 8 -11 -3 -8 -10 -17 -18 -20 -18 -4
0 -4 8 0 18 5 14 3 15 -8 5 -7 -7 -17 -13 -22 -13 -4 0 -5 6 -2 13 4 6 0 4 -8
-6 -15 -18 -16 -18 -27 0 -11 17 -11 17 -6 -1z m-5934 -822 c0 -8 -19 -13 -24
-6 -3 5 1 9 9 9 8 0 15 -2 15 -3z m1404 -162 c3 -5 -1 -9 -9 -9 -8 0 -12 4 -9
9 3 4 7 8 9 8 2 0 6 -4 9 -8z m1816 -28 c0 -8 -5 -12 -10 -9 -6 4 -8 11 -5 16
9 14 15 11 15 -7z m1973 -3839 c-3 -9 -8 -14 -10 -11 -3 3 -2 9 2 15 9 16 15
13 8 -4z"/>
<path d="M7306 10358 c3 -4 9 -8 15 -8 5 0 9 4 9 8 0 5 -7 9 -15 9 -8 0 -12
-4 -9 -9z"/>
<path d="M4370 10289 c0 -5 5 -7 10 -4 6 3 10 8 10 11 0 2 -4 4 -10 4 -5 0
-10 -5 -10 -11z"/>
<path d="M3665 10120 c-3 -6 1 -7 9 -4 18 7 21 14 7 14 -6 0 -13 -4 -16 -10z"/>
<path d="M2536 9553 c-6 -14 -5 -15 5 -6 7 7 10 15 7 18 -3 3 -9 -2 -12 -12z"/>
<path d="M12114 6139 c-19 -22 -19 -22 4 -8 12 8 22 17 22 21 0 12 -6 9 -26
-13z"/>
<path d="M11945 5990 c-10 -11 -14 -20 -9 -20 5 0 15 9 22 20 7 11 11 20 9 20
-2 0 -12 -9 -22 -20z"/>
<path d="M2910 5966 c0 -4 11 -22 25 -40 14 -18 22 -36 17 -40 -4 -4 -2 -7 3
-6 28 6 37 0 25 -15 -10 -12 -8 -14 9 -10 14 2 18 -1 14 -11 -3 -9 2 -14 16
-14 13 0 23 -8 27 -24 4 -17 12 -23 24 -21 11 2 20 -4 23 -16 3 -10 12 -19 21
-19 9 0 16 -5 16 -11 0 -5 5 -7 10 -4 6 3 10 -2 10 -12 0 -14 2 -15 9 -5 7 11
9 11 14 -2 4 -9 13 -16 22 -16 8 0 15 -7 15 -15 0 -14 12 -19 33 -16 4 0 7 -4
7 -10 0 -5 5 -7 10 -4 6 3 10 -1 10 -9 0 -8 16 -20 34 -27 19 -7 33 -16 30
-21 -3 -5 -2 -8 3 -7 18 3 34 -1 29 -9 -2 -4 4 -9 16 -9 11 -1 27 -10 36 -20
28 -30 60 -44 65 -30 3 7 6 1 6 -12 1 -18 5 -22 21 -18 13 3 20 0 20 -9 0 -8
3 -13 8 -13 20 3 33 -2 27 -11 -4 -6 -3 -10 2 -9 25 4 45 -2 40 -14 -4 -10 2
-13 21 -10 21 4 24 2 12 -6 -12 -9 -11 -11 8 -11 16 0 21 -4 16 -12 -4 -7 -4
-10 1 -6 4 4 15 2 23 -5 13 -10 15 -9 8 3 -4 8 -1 7 8 -4 8 -10 22 -16 30 -13
10 4 13 1 9 -9 -3 -8 1 -14 11 -14 20 0 56 -20 73 -40 7 -8 13 -11 13 -6 0 6
7 1 16 -10 8 -10 12 -13 9 -6 -6 11 -3 12 14 2 12 -6 25 -18 28 -26 5 -13 7
-13 14 -2 7 11 9 11 9 0 0 -9 8 -11 23 -8 12 3 16 3 10 0 -14 -6 -18 -25 -5
-23 4 1 18 1 31 0 17 -1 22 -5 17 -17 -5 -14 -4 -15 9 -4 12 10 15 10 15 0 0
-10 3 -10 15 0 13 11 14 10 9 -4 -4 -10 -1 -17 7 -18 8 0 21 -2 29 -2 8 -1 14
-7 13 -14 -2 -7 4 -9 14 -5 12 5 14 3 8 -8 -8 -12 -6 -12 9 0 15 12 17 12 14
0 -2 -8 3 -13 10 -12 6 2 12 -2 12 -8 0 -6 9 -9 19 -6 14 3 18 1 14 -9 -4 -12
16 -20 32 -11 2 1 12 -8 21 -21 13 -19 18 -21 32 -10 9 7 13 8 9 2 -4 -7 1
-18 10 -25 12 -10 14 -10 9 -1 -4 6 -3 12 2 12 5 0 14 -10 21 -22 9 -19 11
-19 6 -3 -5 20 -5 20 10 1 8 -11 15 -14 15 -8 0 7 9 3 20 -8 12 -12 26 -18 32
-14 7 5 9 2 6 -8 -4 -8 0 -15 8 -15 7 0 10 5 7 11 -4 6 1 5 10 -3 9 -7 14 -17
11 -22 -3 -5 -2 -9 3 -8 26 5 63 -2 58 -11 -3 -5 3 -10 14 -10 12 0 21 -5 21
-11 0 -8 5 -8 15 1 12 10 15 10 15 -4 0 -9 3 -15 8 -14 4 1 17 -3 28 -10 12
-6 24 -8 28 -5 3 3 6 1 6 -6 0 -9 9 -12 24 -9 17 4 23 1 19 -9 -3 -8 2 -13 15
-13 12 0 24 -5 28 -11 3 -6 15 -9 25 -6 10 3 18 2 17 -2 0 -3 0 -13 1 -21 1
-13 2 -13 11 0 5 8 10 10 10 3 0 -6 9 -9 20 -6 12 3 20 0 20 -8 0 -7 3 -9 7
-6 3 4 12 -1 20 -11 9 -10 11 -11 7 -2 -7 13 -5 13 9 1 9 -7 15 -16 13 -20 -2
-3 9 -7 25 -8 39 -3 91 -31 83 -45 -4 -6 -3 -8 4 -4 5 3 13 0 15 -6 4 -10 6
-10 6 0 1 6 6 12 12 12 5 0 7 -4 4 -10 -6 -10 7 -14 33 -11 8 1 21 -6 29 -16
8 -10 12 -12 8 -6 -4 9 -1 11 9 7 9 -3 13 -11 9 -18 -4 -8 -2 -8 7 1 10 9 17
7 33 -8 23 -21 47 -25 47 -7 0 6 9 1 20 -12 12 -14 27 -21 39 -17 15 4 19 0
16 -15 -3 -16 -1 -17 9 -9 11 9 18 8 29 -3 11 -11 17 -12 27 -3 10 10 12 8 6
-7 -4 -13 -2 -17 8 -13 7 3 19 0 26 -6 10 -9 11 -9 6 0 -9 16 21 10 44 -10 11
-9 27 -14 35 -11 9 4 15 3 14 -2 -4 -21 2 -26 16 -14 12 10 16 9 21 -4 5 -13
10 -14 27 -4 19 10 20 9 9 -4 -11 -14 -8 -16 27 -14 22 0 39 -3 38 -9 -1 -5 8
-10 20 -9 12 0 22 -2 21 -5 -2 -19 4 -22 19 -10 9 8 14 9 11 4 -4 -6 -3 -17 3
-25 6 -10 9 -11 9 -2 0 6 9 12 20 12 11 0 20 -5 20 -10 0 -6 6 -10 13 -9 18 3
67 -12 67 -21 0 -13 43 -20 57 -8 11 9 12 7 6 -8 -6 -17 -5 -17 10 -5 15 12
17 12 11 -3 -8 -21 5 -21 22 2 12 14 13 14 8 1 -3 -10 1 -19 10 -22 9 -4 16
-2 16 4 0 6 5 7 10 4 6 -4 7 -12 3 -18 -4 -8 -1 -7 9 1 10 8 17 9 20 3 1 -6
15 -12 31 -13 15 -1 27 -7 27 -13 0 -5 5 -3 10 5 8 12 10 12 10 -5 0 -17 2
-17 10 -5 5 8 10 10 10 3 0 -6 9 -9 20 -6 12 3 20 0 20 -6 0 -7 4 -10 9 -7 5
3 14 -1 21 -9 9 -11 16 -12 25 -5 9 8 15 7 18 -2 4 -10 6 -10 6 0 1 10 5 10
17 -2 8 -9 20 -14 25 -11 5 4 9 2 9 -3 0 -5 11 -8 25 -7 15 2 29 -3 35 -13 9
-15 9 -15 10 1 0 10 5 15 10 12 6 -4 8 -10 6 -14 -3 -4 5 -7 17 -6 12 1 28 -2
35 -8 8 -6 12 -6 12 0 0 12 52 4 61 -9 3 -5 22 -10 42 -11 21 -1 37 -5 37 -8
0 -4 7 -10 16 -13 13 -5 14 -4 6 7 -15 17 13 16 46 -2 12 -6 27 -9 33 -5 6 4
15 1 19 -7 7 -10 11 -10 24 0 9 8 16 9 16 4 0 -14 51 -14 69 -1 14 11 14 11 3
-3 -10 -14 -10 -18 4 -23 10 -4 21 -1 26 6 8 10 11 10 15 1 3 -9 10 -10 22 -3
13 6 24 5 37 -5 12 -9 23 -10 30 -4 8 6 17 4 28 -6 9 -9 16 -12 16 -7 0 5 7 9
15 9 8 0 15 -5 15 -11 0 -6 5 -4 10 4 5 8 10 10 10 4 0 -6 19 -10 48 -10 33 1
49 -3 54 -14 5 -12 7 -12 7 3 1 15 4 16 22 6 15 -8 19 -8 15 0 -4 6 -2 11 3
11 6 0 11 -8 12 -17 0 -11 3 -13 6 -5 2 6 11 12 19 12 9 0 12 -5 8 -11 -3 -6
4 -4 18 5 22 14 26 14 48 -1 13 -9 20 -11 16 -5 -4 7 -3 12 3 12 5 0 12 -6 14
-12 4 -10 6 -10 6 0 1 6 6 12 12 12 5 0 8 -4 5 -8 -7 -12 98 -9 106 3 5 6 8 5
8 -2 0 -7 5 -13 11 -13 6 0 8 7 5 17 -6 16 -6 16 11 1 14 -13 23 -14 37 -6 14
8 17 7 12 -1 -4 -6 -2 -11 3 -11 6 0 11 6 11 13 0 9 3 8 9 -2 7 -11 10 -11 15
0 5 11 7 11 12 2 4 -10 9 -9 21 2 8 8 19 12 24 9 16 -10 59 -12 53 -3 -3 5 2
9 10 9 10 0 13 -6 10 -17 -5 -17 -5 -17 6 -1 6 10 17 15 27 11 12 -5 14 -3 8
8 -7 11 -6 12 6 2 12 -10 18 -10 27 -1 9 9 12 9 12 -2 0 -11 3 -11 12 -2 16
16 31 15 22 0 -5 -9 -3 -9 9 1 9 7 28 11 42 9 14 -3 28 -1 32 5 4 6 1 7 -7 2
-9 -5 -11 -4 -6 4 6 9 11 9 21 1 10 -8 15 -8 20 0 5 8 11 8 21 -1 12 -10 18
-6 16 12 -1 3 5 6 13 6 8 0 12 -4 9 -8 -2 -4 0 -10 6 -14 5 -3 10 1 10 9 0 9
7 16 15 16 9 0 12 -6 8 -17 -5 -12 -1 -11 15 5 23 23 48 30 36 11 -5 -8 -1 -8
14 0 11 6 28 8 36 5 9 -3 16 -1 16 6 0 6 -6 8 -12 4 -7 -4 -10 -3 -5 1 11 13
47 13 40 1 -3 -6 -1 -6 7 1 7 6 19 9 28 6 8 -4 13 -2 9 3 -3 6 8 9 26 9 37 -2
59 4 53 14 -3 4 11 5 30 3 20 -3 34 0 34 7 0 7 8 8 26 1 16 -7 23 -7 19 0 -5
9 1 12 21 9 4 0 11 5 15 13 7 11 9 11 9 -1 0 -8 8 -4 20 10 10 13 19 18 20 12
0 -7 -4 -13 -10 -13 -5 0 -10 -5 -10 -12 0 -6 11 -1 24 11 14 13 29 20 34 17
6 -3 12 1 15 9 4 8 16 14 29 13 38 -1 49 2 43 11 -3 6 4 8 15 6 11 -2 20 0 20
5 0 5 9 7 20 5 11 -2 18 0 15 6 -4 5 6 9 20 9 15 0 24 4 20 10 -3 6 1 7 9 4 9
-3 13 -11 9 -17 -4 -6 -1 -7 6 -3 7 5 10 15 6 24 -5 13 -1 12 15 -3 20 -18 21
-18 14 0 -5 12 -4 16 3 12 16 -10 44 3 36 16 -3 6 -1 7 5 3 11 -7 55 16 49 25
-1 2 2 1 8 -3 15 -13 27 -9 21 8 -3 8 -2 12 3 9 5 -3 12 -1 16 5 3 5 15 10 27
10 13 0 18 5 15 14 -4 10 -1 13 7 10 7 -3 16 2 20 11 3 9 10 13 16 10 6 -4 7
1 3 11 -4 12 -3 15 5 10 7 -4 12 -3 12 2 0 16 -41 17 -250 3 -300 -19 -527
-22 -770 -10 -135 7 -265 14 -290 15 -25 1 -49 3 -55 5 -5 1 -30 3 -55 4 -87
4 -206 15 -280 25 -41 6 -104 13 -140 16 -36 3 -72 8 -80 12 -8 3 -26 7 -40 8
-24 2 -57 7 -125 18 -16 3 -50 7 -75 10 -65 6 -167 25 -225 41 -27 7 -75 16
-105 18 -101 9 -160 19 -160 28 0 5 -10 8 -22 8 -13 -1 -75 11 -138 26 -63 14
-131 29 -150 32 -19 3 -40 9 -46 14 -6 5 -18 7 -27 3 -8 -3 -18 -1 -22 5 -3 6
-21 11 -40 11 -19 0 -37 4 -40 10 -3 5 -16 9 -28 9 -29 -1 -227 48 -250 61
-20 12 -166 50 -214 55 -18 2 -41 9 -51 14 -11 6 -33 13 -49 16 -17 2 -61 15
-99 27 -38 12 -74 23 -81 23 -6 0 -15 4 -19 8 -4 4 -15 7 -25 7 -15 0 -239 68
-294 89 -49 19 -93 33 -130 42 -22 5 -59 18 -82 29 -23 11 -56 22 -74 25 -18
3 -56 17 -86 30 -29 14 -64 25 -76 25 -13 0 -27 4 -32 9 -6 6 -22 12 -37 15
-14 2 -37 11 -50 20 -12 8 -48 22 -79 30 -31 8 -71 21 -87 30 -17 9 -35 16
-40 16 -5 0 -26 7 -46 15 -20 8 -37 14 -38 13 -2 -2 -17 7 -35 20 -17 12 -38
22 -48 22 -9 0 -29 7 -44 15 -16 8 -39 16 -52 19 -13 2 -46 16 -74 29 -27 13
-83 36 -124 51 -41 15 -86 33 -100 40 -30 16 -119 56 -125 56 -6 0 -227 109
-274 135 -23 13 -46 25 -50 26 -21 6 -72 34 -72 39 0 4 -9 17 -20 30 -11 13
-20 20 -20 16z m3307 -1631 c0 -8 -4 -12 -9 -9 -5 3 -6 10 -3 15 9 13 12 11
12 -6z m1207 -163 c3 -5 -1 -9 -9 -9 -8 0 -12 4 -9 9 3 4 7 8 9 8 2 0 6 -4 9
-8z"/>
<path d="M9563 4985 c0 -8 4 -12 9 -9 5 3 6 10 3 15 -9 13 -12 11 -12 -6z"/>
<path d="M9597 4993 c-4 -3 -7 -11 -7 -17 0 -6 5 -5 12 2 6 6 9 14 7 17 -3 3
-9 2 -12 -2z"/>
<path d="M5430 4570 c0 -5 5 -10 11 -10 5 0 7 5 4 10 -3 6 -8 10 -11 10 -2 0
-4 -4 -4 -10z"/>
<path d="M8576 4327 c3 -10 9 -15 12 -12 3 3 0 11 -7 18 -10 9 -11 8 -5 -6z"/>
<path d="M6630 4230 c0 -5 5 -10 11 -10 5 0 7 5 4 10 -3 6 -8 10 -11 10 -2 0
-4 -4 -4 -10z"/>
<path d="M7276 4162 c-3 -5 1 -9 9 -9 8 0 12 4 9 9 -3 4 -7 8 -9 8 -2 0 -6 -4
-9 -8z"/>
<path d="M7636 4162 c-3 -5 1 -9 9 -9 8 0 12 4 9 9 -3 4 -7 8 -9 8 -2 0 -6 -4
-9 -8z"/>
</g>
</svg>
