<?xml version="1.0" standalone="no"?>
<!DOCTYPE svg PUBLIC "-//W3C//DTD SVG 20010904//EN"
 "http://www.w3.org/TR/2001/REC-SVG-20010904/DTD/svg10.dtd">
<svg version="1.0" xmlns="http://www.w3.org/2000/svg"
 width="734.000000pt" height="734.000000pt" viewBox="0 0 734.000000 734.000000"
 preserveAspectRatio="xMidYMid meet">
<metadata>
Created by potrace 1.14, written by Peter Selinger 2001-2017
</metadata>
<g transform="translate(0.000000,734.000000) scale(0.100000,-0.100000)"
fill="#000000" stroke="none">
<path d="M3199 6315 c-1 -3 -2 -11 -3 -17 -1 -7 -7 -12 -14 -10 -18 3 -17
-1241 1 -1255 14 -12 72 -33 107 -39 14 -2 43 -11 65 -19 58 -21 147 -27 166
-12 15 11 17 76 20 674 2 364 0 665 -4 670 -9 9 -336 17 -338 8z"/>
<path d="M4003 5898 c-4 -7 -6 -287 -4 -621 l3 -608 -64 5 c-34 2 -70 7 -78
10 -8 3 -33 7 -55 10 -22 2 -47 7 -55 10 -8 3 -26 7 -40 10 -14 2 -45 9 -70
14 -25 5 -52 10 -60 10 -8 0 -49 10 -90 22 -116 33 -143 39 -151 34 -4 -2 -9
0 -11 6 -2 6 -12 12 -23 15 -11 2 -35 8 -52 14 -18 5 -33 7 -33 4 0 -3 -9 2
-21 13 -12 10 -24 18 -28 17 -18 -7 -308 110 -322 131 -4 5 -11 6 -17 2 -6 -3
-12 -2 -14 3 -1 5 -32 24 -68 43 -75 40 -172 92 -250 137 -128 72 -312 148
-380 156 -8 1 -23 6 -32 10 -10 4 -32 8 -50 9 -18 0 -35 4 -38 7 -10 12 -140
20 -140 9 0 -7 -5 -8 -12 -3 -18 11 -87 13 -93 2 -3 -4 -16 -4 -29 1 -13 5
-26 7 -28 4 -3 -2 -31 -9 -64 -15 -240 -43 -484 -195 -629 -393 -25 -33 -50
-66 -55 -73 -6 -7 -10 -15 -10 -18 0 -3 -15 -29 -33 -58 -104 -163 -196 -456
-222 -712 -4 -33 -9 -71 -11 -85 -3 -14 -7 -106 -11 -205 -8 -285 16 -472 104
-780 55 -193 195 -487 302 -636 17 -23 31 -45 31 -49 0 -5 14 -22 30 -40 17
-18 30 -36 30 -41 0 -6 16 -28 36 -49 20 -22 43 -48 51 -59 7 -11 26 -33 41
-49 134 -142 172 -179 216 -215 28 -23 57 -49 66 -58 20 -21 137 -110 171
-129 15 -8 53 -33 85 -55 33 -22 73 -46 89 -54 31 -14 81 -24 71 -14 -3 3 2
12 12 19 15 12 14 12 -7 7 -14 -4 -22 -2 -18 3 9 15 -2 25 -78 79 -38 27 -106
84 -151 127 -45 43 -86 78 -93 78 -6 0 -11 4 -11 8 0 4 -16 23 -35 42 -19 19
-35 40 -35 46 0 7 -7 15 -16 18 -9 4 -15 9 -12 12 3 2 -12 24 -33 47 -22 23
-39 48 -39 54 0 7 -4 13 -9 13 -5 0 -17 13 -28 29 -10 16 -38 58 -63 92 -51
72 -50 72 -116 194 -26 50 -51 92 -56 93 -4 2 -6 8 -3 12 3 5 -8 36 -24 69
-16 34 -27 61 -25 61 3 0 -2 13 -10 29 -9 16 -12 31 -9 35 4 3 2 6 -4 6 -6 0
-13 10 -16 23 -3 12 -15 60 -27 107 -12 47 -23 92 -25 100 -2 8 -11 44 -20 80
-48 196 -62 307 -71 593 -10 319 39 632 130 823 45 96 129 224 161 248 14 10
25 24 25 31 0 7 17 25 37 41 21 15 47 38 58 49 53 57 177 131 197 119 4 -3 8
-1 8 3 0 8 111 41 140 42 8 0 48 3 88 7 41 4 72 3 72 -2 0 -5 19 -8 43 -7 23
1 49 0 57 -3 8 -4 26 -8 40 -10 49 -6 120 -26 126 -35 3 -5 14 -9 25 -9 18 0
147 -56 159 -69 3 -3 23 -15 45 -26 22 -11 54 -33 72 -49 18 -15 33 -25 33
-22 0 7 89 -51 100 -64 11 -14 111 -70 125 -70 8 0 15 -5 15 -11 0 -5 4 -8 9
-4 10 5 83 -33 89 -47 2 -5 7 -6 12 -3 8 5 22 0 95 -31 17 -7 62 -22 100 -35
39 -12 71 -26 73 -30 2 -4 9 -6 15 -4 7 3 57 -9 112 -25 55 -17 111 -33 124
-36 12 -2 53 -12 90 -20 36 -9 80 -18 96 -21 17 -2 37 -7 45 -10 14 -6 56 -12
90 -15 54 -3 306 -50 317 -59 11 -10 13 -334 13 -1902 -1 -1528 2 -1893 12
-1903 9 -9 60 -13 172 -15 155 -2 160 -1 178 21 18 22 19 79 13 1854 -3 1007
-2 1850 1 1874 l6 42 192 -1 c105 0 193 1 196 2 3 1 25 3 50 4 25 2 104 6 175
11 72 4 147 8 168 8 20 1 37 5 37 9 0 5 10 7 23 6 12 -1 55 3 95 10 40 7 76
10 79 7 3 -3 13 -1 22 4 19 9 115 23 169 23 17 0 32 4 32 9 0 15 19 8 23 -9 4
-17 5 -17 6 0 1 16 17 21 74 20 9 0 17 4 17 9 0 4 12 8 26 8 14 0 23 4 19 9
-3 6 3 10 12 10 10 0 39 7 65 16 42 15 48 22 54 52 10 51 -3 296 -17 327 -15
32 -26 32 -113 1 -38 -13 -73 -22 -79 -18 -5 3 -13 0 -17 -6 -4 -7 -40 -21
-81 -32 -82 -22 -79 -22 -196 -40 -46 -7 -83 -17 -83 -21 0 -4 -6 -5 -14 -2
-8 3 -48 0 -88 -7 -171 -28 -282 -39 -450 -41 -65 -1 -118 -4 -118 -7 0 -5
-94 -6 -240 -2 l-45 1 -3 612 c-2 413 -7 617 -14 625 -6 7 -18 13 -27 13 -14
0 -14 2 -1 10 10 6 -40 10 -152 10 -123 0 -169 -3 -175 -12z"/>
<path d="M1770 4757 c-3 -3 -30 -7 -60 -9 -30 -3 -71 -12 -90 -20 -37 -17 -90
-60 -90 -73 0 -5 -7 -17 -16 -26 -29 -32 -33 -96 -33 -529 -1 -433 -1 -595 -4
-778 -1 -57 1 -106 5 -108 5 -3 8 -14 8 -25 0 -11 -3 -18 -7 -16 -9 6 -9 -105
0 -119 5 -9 3 -127 -5 -274 -1 -14 2 -58 6 -99 5 -53 4 -76 -4 -81 -12 -7 11
-62 42 -101 18 -23 111 -43 191 -41 75 1 141 30 130 58 -3 9 1 14 12 14 13 0
15 3 7 13 -8 9 -11 264 -11 863 0 467 4 840 9 829 4 -11 20 -31 34 -44 14 -14
26 -32 26 -42 0 -9 6 -19 13 -22 7 -2 44 -51 82 -108 38 -57 72 -106 76 -109
3 -3 8 -9 10 -15 4 -10 171 -265 206 -315 10 -14 54 -81 97 -150 43 -69 83
-126 87 -128 5 -2 9 -8 9 -14 0 -11 55 -93 82 -122 10 -11 18 -23 18 -28 0 -7
59 -102 83 -133 4 -5 19 -28 33 -50 15 -22 39 -58 53 -80 45 -66 137 -207 164
-251 14 -22 31 -47 39 -55 8 -8 23 -30 35 -49 48 -78 88 -98 213 -106 63 -5
112 1 175 20 22 6 65 30 65 35 0 4 11 18 24 32 13 14 34 48 46 75 22 49 22 51
20 564 0 283 -2 631 -3 773 l-3 257 -24 25 c-29 28 -130 52 -247 59 -13 0 -23
5 -23 9 0 5 -14 7 -32 5 -22 -2 -32 -9 -35 -23 -6 -28 -13 -593 -13 -967 0
-208 -3 -318 -10 -318 -5 0 -10 6 -10 14 0 7 -14 31 -31 52 -17 22 -40 57 -51
79 -12 22 -24 42 -28 45 -3 3 -22 31 -41 63 -19 32 -38 66 -44 76 -5 9 -19 30
-31 46 -11 17 -24 38 -27 48 -4 9 -11 17 -17 17 -5 0 -10 4 -10 10 0 5 -21 40
-48 77 -26 38 -54 82 -62 98 -8 17 -28 50 -45 75 -16 26 -34 53 -40 62 -5 8
-29 43 -52 76 -24 34 -43 65 -43 71 0 5 -3 11 -7 13 -12 5 -63 85 -93 145 -15
29 -30 50 -33 46 -4 -3 -7 -1 -7 6 0 7 -23 45 -51 84 -28 40 -88 131 -134 202
-47 72 -89 135 -95 142 -5 7 -10 16 -10 21 0 5 -9 17 -20 27 -11 10 -20 23
-20 30 0 22 -105 117 -155 140 -45 21 -174 43 -185 32z"/>
<path d="M4885 4050 c-4 -11 -9 -18 -13 -16 -5 3 -7 -1794 -2 -2045 0 -20 6
-28 26 -33 14 -4 203 -7 420 -6 217 0 394 -3 394 -7 0 -7 67 -9 95 -3 6 1 15
2 20 0 6 -1 35 0 65 1 30 1 93 2 140 1 47 0 90 -1 95 -1 6 1 161 3 345 5 262
4 338 8 349 18 14 14 17 102 11 299 -2 81 -5 97 -19 98 -74 6 -111 5 -111 -2
0 -4 -13 -4 -28 0 -15 5 -118 7 -227 4 -389 -8 -485 -8 -485 -1 0 4 -149 9
-332 10 -322 3 -331 4 -335 23 -7 39 -7 141 0 152 4 6 1 14 -5 17 -8 4 -9 8
-3 11 6 3 9 26 8 52 -1 27 -4 351 -8 722 -6 617 -8 676 -23 688 -14 10 -15 13
-2 14 8 0 4 5 -10 9 -38 12 -150 12 -150 -1 0 -5 -6 -7 -12 -3 -7 5 -54 9
-105 11 -85 3 -92 2 -98 -17z"/>
</g>
</svg>
